<svg width="18" height="17" viewBox="0 0 18 17" fill="none" xmlns="http://www.w3.org/2000/svg">
<path d="M13.9993 13.5993C14.2056 13.6163 14.4142 13.625 14.6249 13.625C15.4985 13.625 16.3372 13.4756 17.1169 13.201C17.1222 13.1347 17.1249 13.0677 17.1249 13C17.1249 11.6193 16.0056 10.5 14.6249 10.5C14.1019 10.5 13.6163 10.6606 13.215 10.9352M13.9993 13.5993C13.9994 13.6079 13.9994 13.6164 13.9994 13.625C13.9994 13.8125 13.9891 13.9976 13.969 14.1797C12.505 15.0197 10.8083 15.5 8.99939 15.5C7.1905 15.5 5.49378 15.0197 4.02981 14.1797C4.00971 13.9976 3.99939 13.8125 3.99939 13.625C3.99939 13.6165 3.99941 13.6079 3.99945 13.5994M13.9993 13.5993C13.9944 12.6188 13.7073 11.7051 13.215 10.9352M13.215 10.9352C12.3267 9.54598 10.7706 8.625 8.99939 8.625C7.22838 8.625 5.67243 9.54576 4.78413 10.9347M4.78413 10.9347C4.38291 10.6604 3.89769 10.5 3.375 10.5C1.99429 10.5 0.875 11.6193 0.875 13C0.875 13.0677 0.877689 13.1347 0.882967 13.201C1.66266 13.4756 2.50139 13.625 3.375 13.625C3.58528 13.625 3.79355 13.6163 3.99945 13.5994M4.78413 10.9347C4.29164 11.7047 4.00438 12.6187 3.99945 13.5994M11.4994 3.625C11.4994 5.00571 10.3801 6.125 8.99939 6.125C7.61868 6.125 6.49939 5.00571 6.49939 3.625C6.49939 2.24429 7.61868 1.125 8.99939 1.125C10.3801 1.125 11.4994 2.24429 11.4994 3.625ZM16.4994 6.125C16.4994 7.16053 15.6599 8 14.6244 8C13.5889 8 12.7494 7.16053 12.7494 6.125C12.7494 5.08947 13.5889 4.25 14.6244 4.25C15.6599 4.25 16.4994 5.08947 16.4994 6.125ZM5.24939 6.125C5.24939 7.16053 4.40992 8 3.37439 8C2.33886 8 1.49939 7.16053 1.49939 6.125C1.49939 5.08947 2.33886 4.25 3.37439 4.25C4.40992 4.25 5.24939 5.08947 5.24939 6.125Z" stroke="#121419" stroke-width="1.5" stroke-linecap="round" stroke-linejoin="round"/>
</svg>
