<svg width="20" height="21" viewBox="0 0 20 21" fill="none" xmlns="http://www.w3.org/2000/svg">
<path d="M10.9919 8.14367C11.3661 8.32242 11.7167 8.56675 12.0267 8.87667C13.4911 10.3411 13.4911 12.7155 12.0267 14.18L8.27665 17.93C6.81218 19.3944 4.43782 19.3944 2.97335 17.93C1.50888 16.4655 1.50888 14.0911 2.97335 12.6267L4.43749 11.1625M15.5625 10.6441L17.0267 9.17997C18.4911 7.7155 18.4911 5.34114 17.0267 3.87667C15.5622 2.4122 13.1878 2.4122 11.7234 3.87667L7.97335 7.62667C6.50888 9.09114 6.50888 11.4655 7.97335 12.93C8.28327 13.2399 8.63394 13.4842 9.00812 13.663" stroke="#121419" stroke-width="1.5" stroke-linecap="round" stroke-linejoin="round"/>
</svg>
