<svg width="16" height="18" viewBox="0 0 16 18" fill="none" xmlns="http://www.w3.org/2000/svg">
<path fill-rule="evenodd" clip-rule="evenodd" d="M2.37452 6.49984C2.37461 3.39331 4.89297 0.875 7.99952 0.875C11.1061 0.875 13.6245 3.3934 13.6245 6.5L13.6244 6.54099V7.125C13.6244 8.89427 14.2919 10.5062 15.3898 11.7249C15.5286 11.8789 15.5819 12.0917 15.5323 12.293C15.4826 12.4942 15.3364 12.6578 15.1419 12.7296C13.8552 13.2045 12.5083 13.5549 11.1159 13.766C11.1216 13.8433 11.1245 13.9213 11.1245 14C11.1245 15.7259 9.72541 17.125 7.99952 17.125C6.27363 17.125 4.87452 15.7259 4.87452 14C4.87452 13.9214 4.87744 13.8433 4.88318 13.766C3.49062 13.5549 2.14357 13.2046 0.856804 12.7296C0.662335 12.6578 0.516114 12.4942 0.466452 12.293C0.41679 12.0917 0.470148 11.8789 0.608898 11.7249C1.70684 10.5062 2.37436 8.89427 2.37436 7.125L2.37452 6.49984ZM6.12636 13.9161C6.12514 13.9439 6.12452 13.9718 6.12452 14C6.12452 15.0355 6.96399 15.875 7.99952 15.875C9.03506 15.875 9.87452 15.0355 9.87452 14C9.87452 13.9718 9.87391 13.9438 9.87269 13.916C9.25554 13.9716 8.63068 14 7.99936 14C7.36814 14 6.7434 13.9716 6.12636 13.9161Z" fill="#AAAEBB"/>
</svg>
