<svg width="18" height="14" viewBox="0 0 18 14" fill="none" xmlns="http://www.w3.org/2000/svg">
<path d="M2.75 0.125C1.36929 0.125 0.25 1.24429 0.25 2.625V3.25H17.75V2.625C17.75 1.24429 16.6307 0.125 15.25 0.125H2.75Z" fill="#AAAEBB"/>
<path fill-rule="evenodd" clip-rule="evenodd" d="M17.75 5.125H0.25V11.375C0.25 12.7557 1.36929 13.875 2.75 13.875H15.25C16.6307 13.875 17.75 12.7557 17.75 11.375V5.125ZM2.75 8.25C2.75 7.90482 3.02982 7.625 3.375 7.625H8.375C8.72018 7.625 9 7.90482 9 8.25C9 8.59518 8.72018 8.875 8.375 8.875H3.375C3.02982 8.875 2.75 8.59518 2.75 8.25ZM3.375 10.125C3.02982 10.125 2.75 10.4048 2.75 10.75C2.75 11.0952 3.02982 11.375 3.375 11.375H5.875C6.22018 11.375 6.5 11.0952 6.5 10.75C6.5 10.4048 6.22018 10.125 5.875 10.125H3.375Z" fill="#AAAEBB"/>
</svg>
