<svg width="14" height="15" viewBox="0 0 14 15" fill="none" xmlns="http://www.w3.org/2000/svg">
<path d="M12.5 8.93328V11.7666C12.5 12.4963 11.9754 13.1239 11.2521 13.22C9.86097 13.4047 8.44162 13.5 7 13.5C5.55838 13.5 4.13903 13.4047 2.7479 13.22C2.0246 13.1239 1.5 12.4963 1.5 11.7666V8.93327M12.5 8.93328C12.8146 8.66509 13 8.25925 13 7.82592V5.30379C13 4.58317 12.4881 3.96054 11.7754 3.85391C11.0251 3.74165 10.2663 3.65543 9.5 3.59622M12.5 8.93328C12.3709 9.04331 12.2201 9.13017 12.0514 9.18625C10.4635 9.71416 8.76516 10 7.00001 10C5.23486 10 3.53646 9.71416 1.94859 9.18624C1.7799 9.13016 1.62907 9.0433 1.5 8.93327M1.5 8.93327C1.18539 8.66508 1 8.25924 1 7.82591V5.30379C1 4.58317 1.51194 3.96054 2.22463 3.85391C2.97489 3.74165 3.73366 3.65544 4.5 3.59622M9.5 3.59622V3C9.5 2.17157 8.82843 1.5 8 1.5H6C5.17157 1.5 4.5 2.17157 4.5 3V3.59622M9.5 3.59622C8.67504 3.53247 7.84131 3.5 7 3.5C6.15869 3.5 5.32496 3.53247 4.5 3.59622M7 8H7.005V8.005H7V8Z" stroke="#757C91" stroke-width="1.5" stroke-linecap="round" stroke-linejoin="round"/>
</svg>
