<svg width="14" height="13" viewBox="0 0 14 13" fill="none" xmlns="http://www.w3.org/2000/svg">
<path fill-rule="evenodd" clip-rule="evenodd" d="M4 2C4 0.89543 4.89543 0 6 0H8C9.10457 0 10 0.895431 10 2V2.13665C10.6216 2.19356 11.2383 2.26797 11.8494 2.35941C12.8187 2.50445 13.5 3.34775 13.5 4.30379V6.32593C13.5 7.13336 13.0109 7.89417 12.2091 8.16072C10.5711 8.70533 8.81945 9 7.00002 9C5.18058 9 3.42895 8.70532 1.79085 8.1607C0.989094 7.89415 0.5 7.13334 0.5 6.32591V4.30379C0.5 3.34776 1.18127 2.50446 2.15064 2.35941C2.76174 2.26798 3.37836 2.19356 4 2.13665V2ZM9 2V2.06055C8.33843 2.02038 7.67157 2 7 2C6.32843 2 5.66157 2.02038 5 2.06055V2C5 1.44772 5.44772 1 6 1H8C8.55228 1 9 1.44772 9 2ZM7 7.5C7.27614 7.5 7.5 7.27614 7.5 7C7.5 6.72386 7.27614 6.5 7 6.5C6.72386 6.5 6.5 6.72386 6.5 7C6.5 7.27614 6.72386 7.5 7 7.5Z" fill="#AAAEBB"/>
<path d="M1 10.7666V8.90262C1.14869 8.98417 1.30731 9.05377 1.47536 9.10964C3.21391 9.68765 5.07201 10 7.00002 10C8.92802 10 10.7861 9.68766 12.5246 9.10965C12.6927 9.05379 12.8513 8.98418 13 8.90263V10.7666C13 11.7346 12.3018 12.585 11.3179 12.7156C9.90502 12.9032 8.46369 13 7 13C5.53631 13 4.09498 12.9032 2.68209 12.7156C1.69816 12.585 1 11.7346 1 10.7666Z" fill="#AAAEBB"/>
</svg>
