<svg width="18" height="17" viewBox="0 0 18 17" fill="none" xmlns="http://www.w3.org/2000/svg">
<path d="M6.3252 8C6.3252 8.17259 6.18528 8.3125 6.0127 8.3125C5.84011 8.3125 5.7002 8.17259 5.7002 8C5.7002 7.82741 5.84011 7.6875 6.0127 7.6875C6.18528 7.6875 6.3252 7.82741 6.3252 8ZM6.3252 8H6.0127M9.4502 8C9.4502 8.17259 9.31028 8.3125 9.1377 8.3125C8.96511 8.3125 8.8252 8.17259 8.8252 8C8.8252 7.82741 8.96511 7.6875 9.1377 7.6875C9.31028 7.6875 9.4502 7.82741 9.4502 8ZM9.4502 8H9.1377M12.5752 8C12.5752 8.17259 12.4353 8.3125 12.2627 8.3125C12.0901 8.3125 11.9502 8.17259 11.9502 8C11.9502 7.82741 12.0901 7.6875 12.2627 7.6875C12.4353 7.6875 12.5752 7.82741 12.5752 8ZM12.5752 8H12.2627M16.6377 8C16.6377 11.797 13.2798 14.875 9.1377 14.875C8.39814 14.875 7.68358 14.7769 7.00867 14.5941C6.19616 15.1649 5.20603 15.5 4.1377 15.5C3.97168 15.5 3.8075 15.4919 3.64575 15.4761C3.5127 15.4631 3.38086 15.4449 3.25085 15.4216C3.6538 14.9461 3.94 14.3689 4.06593 13.734C4.14148 13.3531 3.95495 12.9832 3.67673 12.7124C2.41245 11.4818 1.6377 9.82384 1.6377 8C1.6377 4.20304 4.99556 1.125 9.1377 1.125C13.2798 1.125 16.6377 4.20304 16.6377 8Z" stroke="#121419" stroke-width="1.5" stroke-linecap="round" stroke-linejoin="round"/>
</svg>
