<svg width="16" height="15" viewBox="0 0 16 15" fill="none" xmlns="http://www.w3.org/2000/svg">
<path d="M5.75 6C5.75 6.13807 5.63807 6.25 5.5 6.25C5.36193 6.25 5.25 6.13807 5.25 6C5.25 5.86193 5.36193 5.75 5.5 5.75C5.63807 5.75 5.75 5.86193 5.75 6ZM5.75 6H5.5M8.25 6C8.25 6.13807 8.13807 6.25 8 6.25C7.86193 6.25 7.75 6.13807 7.75 6C7.75 5.86193 7.86193 5.75 8 5.75C8.13807 5.75 8.25 5.86193 8.25 6ZM8.25 6H8M10.75 6C10.75 6.13807 10.6381 6.25 10.5 6.25C10.3619 6.25 10.25 6.13807 10.25 6C10.25 5.86193 10.3619 5.75 10.5 5.75C10.6381 5.75 10.75 5.86193 10.75 6ZM10.75 6H10.5M1.5 8.00623C1.5 9.07362 2.24894 10.0027 3.30497 10.158C4.02905 10.2644 4.761 10.3467 5.5 10.4038V13.5L8.28899 10.711C8.42681 10.5732 8.61289 10.4948 8.80774 10.49C10.1248 10.4574 11.4221 10.3452 12.695 10.1581C13.751 10.0028 14.5 9.0737 14.5 8.0063V3.9937C14.5 2.92631 13.751 1.99722 12.695 1.84196C11.1627 1.61668 9.59507 1.5 8.00019 1.5C6.40517 1.5 4.83741 1.6167 3.30498 1.84202C2.24894 1.99729 1.5 2.92637 1.5 3.99376V8.00623Z" stroke="#757C91" stroke-width="1.5" stroke-linecap="round" stroke-linejoin="round"/>
</svg>
