<svg width="16" height="14" viewBox="0 0 16 14" fill="none" xmlns="http://www.w3.org/2000/svg">
<path d="M13.5 4.67402C14.0894 4.86366 14.5 5.42613 14.5 6.07215V8.92919C14.5 9.68695 13.9351 10.3295 13.1798 10.3911C12.9539 10.4096 12.7273 10.4257 12.5 10.4395V12.5L10.5 10.5C9.5975 10.5 8.70373 10.4632 7.82015 10.3911C7.62128 10.3748 7.4356 10.3183 7.26996 10.23M13.5 4.67402C13.3991 4.64154 13.2929 4.62 13.1826 4.61085C12.2981 4.53744 11.4034 4.5 10.5 4.5C9.59655 4.5 8.70186 4.53744 7.81739 4.61085C7.06333 4.67343 6.5 5.31549 6.5 6.07214V8.92913C6.5 9.48734 6.80657 9.98304 7.26996 10.23M13.5 4.67402V3.42487C13.5 2.34393 12.7322 1.4071 11.6602 1.26794C10.2986 1.09117 8.91002 1 7.50019 1C6.09022 1 4.70155 1.09119 3.33976 1.26799C2.26782 1.40716 1.5 2.34399 1.5 3.42492V7.57509C1.5 8.65603 2.26782 9.59285 3.33976 9.73202C3.72441 9.78196 4.11119 9.82507 4.5 9.86122V13L7.26996 10.23" stroke="#AAAEBB" stroke-width="1.5" stroke-linecap="round" stroke-linejoin="round"/>
</svg>
