<svg width="14" height="13" viewBox="0 0 14 13" fill="none" xmlns="http://www.w3.org/2000/svg">
<path fill-rule="evenodd" clip-rule="evenodd" d="M2.23224 0.347335C3.78868 0.118485 5.38075 0 7.00019 0C8.61948 0 10.2114 0.118464 11.7677 0.347274C13.0866 0.54118 14 1.6963 14 2.9937V7.0063C14 8.30371 13.0866 9.45883 11.7677 9.65273C11.0036 9.76507 10.2309 9.85081 9.45059 9.90899C9.36763 9.91518 9.29537 9.95832 9.25269 10.0224L7.41603 12.7774C7.32329 12.9164 7.16718 13 7 13C6.83282 13 6.67671 12.9164 6.58397 12.7774L4.74728 10.0223C4.7046 9.95829 4.63235 9.91514 4.54939 9.90895C3.76905 9.85076 2.99635 9.76501 2.23224 9.65265C0.91336 9.45873 0 8.30362 0 7.00623V2.99376C0 1.69637 0.913363 0.541256 2.23224 0.347335ZM3.5 4C3.5 3.72386 3.72386 3.5 4 3.5H10C10.2761 3.5 10.5 3.72386 10.5 4C10.5 4.27614 10.2761 4.5 10 4.5H4C3.72386 4.5 3.5 4.27614 3.5 4ZM4 5.5C3.72386 5.5 3.5 5.72386 3.5 6C3.5 6.27614 3.72386 6.5 4 6.5H7C7.27614 6.5 7.5 6.27614 7.5 6C7.5 5.72386 7.27614 5.5 7 5.5H4Z" fill="#AAAEBB"/>
</svg>
