<svg width="18" height="16" viewBox="0 0 18 16" fill="none" xmlns="http://www.w3.org/2000/svg">
<path fill-rule="evenodd" clip-rule="evenodd" d="M2.42976 0.523739C4.56943 0.179051 6.76407 0 9 0C11.2359 0 13.4306 0.179051 15.5702 0.523739C17.0066 0.75513 18 2.01325 18 3.42588V8.57412C18 9.98675 17.0066 11.2449 15.5702 11.4763C13.8747 11.7494 12.1447 11.9185 10.3869 11.977C10.1832 11.9837 9.99525 12.0654 9.8594 12.2013L6.28033 15.7803C6.06583 15.9948 5.74324 16.059 5.46299 15.9429C5.18273 15.8268 5 15.5533 5 15.25V11.8073C4.13517 11.7236 3.27814 11.6129 2.42976 11.4763C0.993392 11.2449 0 9.98675 0 8.57412V3.42588C0 2.01325 0.993387 0.75513 2.42976 0.523739Z" fill="#121419"/>
</svg>
