<svg width="18" height="18" viewBox="0 0 18 18" fill="none" xmlns="http://www.w3.org/2000/svg">
<path d="M0.875 9.63279C0.875 10.967 1.81118 12.1284 3.13122 12.3225C4.03631 12.4555 4.95126 12.5583 5.875 12.6297V16.5L9.20007 13.1749C9.47571 12.8993 9.84788 12.7431 10.2375 12.7312C11.8056 12.6836 13.351 12.5457 14.8687 12.3226C16.1888 12.1285 17.125 10.9671 17.125 9.63288V4.61713C17.125 3.28288 16.1888 2.12152 14.8687 1.92745C12.9534 1.64584 10.9938 1.5 9.00024 1.5C7.00647 1.5 5.04676 1.64587 3.13122 1.92752C1.81118 2.12161 0.875 3.28297 0.875 4.6172V9.63279Z" stroke="#121419" stroke-width="1.5" stroke-linecap="round" stroke-linejoin="round"/>
</svg>
