<svg width="16" height="19" viewBox="0 0 16 19" fill="none" xmlns="http://www.w3.org/2000/svg">
<path d="M11.125 14.1328V16.9453C11.125 17.4631 10.7053 17.8828 10.1875 17.8828H2.0625C1.54473 17.8828 1.125 17.4631 1.125 16.9453V6.32031C1.125 5.80255 1.54473 5.38281 2.0625 5.38281H3.625C4.05089 5.38281 4.46849 5.41831 4.875 5.48651M11.125 14.1328H13.9375C14.4553 14.1328 14.875 13.7131 14.875 13.1953V9.13281C14.875 5.41657 12.1721 2.33161 8.625 1.73651C8.21849 1.66831 7.80089 1.63281 7.375 1.63281H5.8125C5.29473 1.63281 4.875 2.05255 4.875 2.57031V5.48651M11.125 14.1328H5.8125C5.29473 14.1328 4.875 13.7131 4.875 13.1953V5.48651M14.875 11.0078V9.44531C14.875 7.89201 13.6158 6.63281 12.0625 6.63281H10.8125C10.2947 6.63281 9.875 6.21308 9.875 5.69531V4.44531C9.875 2.89201 8.6158 1.63281 7.0625 1.63281H6.125" stroke="#5B8601" stroke-width="1.5" stroke-linecap="round" stroke-linejoin="round"/>
</svg>
