<svg width="16" height="18" viewBox="0 0 16 18" fill="none" xmlns="http://www.w3.org/2000/svg">
<path d="M4.25 1.8125C4.25 0.949555 4.94956 0.25 5.8125 0.25H6.125C7.85089 0.25 9.25 1.64911 9.25 3.375V4.9375C9.25 5.80045 9.94956 6.5 10.8125 6.5H12.375C14.1009 6.5 15.5 7.89911 15.5 9.625V12.4375C15.5 13.3004 14.8004 14 13.9375 14H5.8125C4.94955 14 4.25 13.3004 4.25 12.4375V1.8125Z" fill="#BDBB87"/>
<path d="M10.5 3.375C10.5 2.28079 10.0983 1.2804 9.43433 0.513254C12.2668 1.25315 14.4969 3.48323 15.2367 6.31567C14.4696 5.6517 13.4692 5.25 12.375 5.25H10.8125C10.6399 5.25 10.5 5.11009 10.5 4.9375V3.375Z" fill="#BDBB87"/>
<path d="M2.0625 4H3V12.4375C3 13.9908 4.2592 15.25 5.8125 15.25H11.75V16.1875C11.75 17.0504 11.0504 17.75 10.1875 17.75H2.0625C1.19956 17.75 0.5 17.0504 0.5 16.1875V5.5625C0.5 4.69955 1.19956 4 2.0625 4Z" fill="#BDBB87"/>
</svg>
