<svg width="16" height="19" viewBox="0 0 16 19" fill="none" xmlns="http://www.w3.org/2000/svg">
<path d="M10.2837 7L9.99519 14.5M6.00481 14.5L5.71635 7M14.023 4.32547C14.308 4.36851 14.592 4.41456 14.875 4.46358M14.023 4.32547L13.1332 15.8938C13.058 16.8707 12.2434 17.625 11.2637 17.625H4.73631C3.75655 17.625 2.94198 16.8707 2.86683 15.8938L1.97696 4.32547M14.023 4.32547C13.0677 4.1812 12.1013 4.07071 11.125 3.99527M1.125 4.46358C1.40798 4.41456 1.69198 4.36851 1.97696 4.32547M1.97696 4.32547C2.93231 4.1812 3.89874 4.07071 4.875 3.99527M11.125 3.99527V3.23182C11.125 2.24902 10.3661 1.42853 9.38382 1.3971C8.92435 1.3824 8.46304 1.375 8 1.375C7.53696 1.375 7.07565 1.3824 6.61618 1.3971C5.63388 1.42853 4.875 2.24902 4.875 3.23182V3.99527M11.125 3.99527C10.0938 3.91558 9.05164 3.875 8 3.875C6.94836 3.875 5.9062 3.91558 4.875 3.99527" stroke="#757C91" stroke-width="1.5" stroke-linecap="round" stroke-linejoin="round"/>
</svg>
