<svg width="18" height="17" viewBox="0 0 18 17" fill="none" xmlns="http://www.w3.org/2000/svg">
<path d="M9 3.5V13.5M6.5 11.1515L7.23239 11.7008C8.20867 12.4331 9.79152 12.4331 10.7678 11.7008C11.7441 10.9686 11.7441 9.78141 10.7678 9.04917C10.2796 8.68302 9.63975 8.49996 8.99991 8.5C8.3958 8.50004 7.79183 8.317 7.33091 7.95085C6.40916 7.21861 6.40916 6.03143 7.33091 5.2992C8.25266 4.56696 9.74711 4.56696 10.6689 5.2992L11.0146 5.57386M16.5 8.5C16.5 12.6421 13.1421 16 9 16C4.85786 16 1.5 12.6421 1.5 8.5C1.5 4.35786 4.85786 1 9 1C13.1421 1 16.5 4.35786 16.5 8.5Z" stroke="#121419" stroke-width="1.5" stroke-linecap="round" stroke-linejoin="round"/>
</svg>
