<svg width="21" height="21" viewBox="0 0 21 21" fill="none" xmlns="http://www.w3.org/2000/svg">
<path d="M15.3617 3.48667L17.0492 1.79917C17.7814 1.06694 18.9686 1.06694 19.7008 1.79917C20.4331 2.53141 20.4331 3.71859 19.7008 4.45083L9.08218 15.0695C8.55351 15.5981 7.90144 15.9868 7.18489 16.2002L4.5 17L5.29978 14.3151C5.51323 13.5986 5.90185 12.9465 6.43052 12.4178L15.3617 3.48667ZM15.3617 3.48667L18 6.12499M16.5 13V17.75C16.5 18.9926 15.4926 20 14.25 20H3.75C2.50736 20 1.5 18.9926 1.5 17.75V7.24999C1.5 6.00735 2.50736 4.99999 3.75 4.99999H8.5" stroke="#121419" stroke-width="1.5" stroke-linecap="round" stroke-linejoin="round"/>
</svg>
