<svg width="18" height="17" viewBox="0 0 18 17" fill="none" xmlns="http://www.w3.org/2000/svg">
<path d="M4.625 1.19434V3.06934M13.375 1.19434V3.06934M1.5 14.3193V4.94434C1.5 3.9088 2.33947 3.06934 3.375 3.06934H14.625C15.6605 3.06934 16.5 3.9088 16.5 4.94434V14.3193M1.5 14.3193C1.5 15.3549 2.33947 16.1943 3.375 16.1943H14.625C15.6605 16.1943 16.5 15.3549 16.5 14.3193M1.5 14.3193V8.06934C1.5 7.0338 2.33947 6.19434 3.375 6.19434H14.625C15.6605 6.19434 16.5 7.0338 16.5 8.06934V14.3193M9 9.31934H9.00625V9.32559H9V9.31934ZM9 11.1943H9.00625V11.2006H9V11.1943ZM9 13.0693H9.00625V13.0756H9V13.0693ZM7.125 11.1943H7.13125V11.2006H7.125V11.1943ZM7.125 13.0693H7.13125V13.0756H7.125V13.0693ZM5.25 11.1943H5.25625V11.2006H5.25V11.1943ZM5.25 13.0693H5.25625V13.0756H5.25V13.0693ZM10.875 9.31934H10.8813V9.32559H10.875V9.31934ZM10.875 11.1943H10.8813V11.2006H10.875V11.1943ZM10.875 13.0693H10.8813V13.0756H10.875V13.0693ZM12.75 9.31934H12.7563V9.32559H12.75V9.31934ZM12.75 11.1943H12.7563V11.2006H12.75V11.1943Z" stroke="#757C91" stroke-width="1.5" stroke-linecap="round" stroke-linejoin="round"/>
</svg>
