<svg width="25" height="25" viewBox="0 0 25 25" fill="none" xmlns="http://www.w3.org/2000/svg">
<g clip-path="url(#clip0_1207_316548)">
<mask id="mask0_1207_316548" style="mask-type:luminance" maskUnits="userSpaceOnUse" x="0" y="0" width="25" height="25">
<path d="M0.5 0.90332L24.5 0.90332V24.9033H0.5V0.90332Z" fill="white"/>
</mask>
<g mask="url(#mask0_1207_316548)">
<path d="M24.5007 12.9042C24.5007 6.27629 19.1277 0.90332 12.4999 0.90332C5.87199 0.90332 0.499023 6.27629 0.499023 12.9042C0.499023 18.5323 4.37361 23.2547 9.60075 24.5516V16.5714H7.12608V12.9042H9.60075V11.3239C9.60075 7.23923 11.4493 5.34598 15.4595 5.34598C16.2197 5.34598 17.5316 5.49503 18.0683 5.64413V8.96856C17.785 8.93875 17.2931 8.92382 16.6819 8.92382C14.7141 8.92382 13.9537 9.66921 13.9537 11.6072V12.9042H17.8736L17.2003 16.5714H13.9537V24.8171C19.8959 24.0994 24.5007 19.0399 24.5007 12.9042Z" fill="#0866FF"/>
<path d="M17.2002 16.5731L17.8736 12.9059H13.9537V11.6089C13.9537 9.67089 14.714 8.92554 16.6818 8.92554C17.293 8.92554 17.7849 8.94042 18.0682 8.97023V5.64585C17.5315 5.49675 16.2196 5.34766 15.4594 5.34766C11.4492 5.34766 9.60065 7.24096 9.60065 11.3257V12.9059H7.12598V16.5731H9.60065V24.5533C10.5292 24.7836 11.5 24.9067 12.4998 24.9067C12.992 24.9067 13.477 24.8764 13.9537 24.8188V16.5731H17.2002Z" fill="white"/>
</g>
</g>
<defs>
<clipPath id="clip0_1207_316548">
<rect width="25" height="24" fill="white" transform="translate(0 0.90332)"/>
</clipPath>
</defs>
</svg>
