<svg width="22" height="20" viewBox="0 0 22 20" fill="none" xmlns="http://www.w3.org/2000/svg">
<path d="M9.25 3L20.625 3M9.25 3C9.25 3.9665 8.4665 4.75 7.5 4.75C6.5335 4.75 5.75 3.9665 5.75 3M9.25 3C9.25 2.0335 8.4665 1.25 7.5 1.25C6.5335 1.25 5.75 2.0335 5.75 3M1.375 3H5.75M9.25 17H20.625M9.25 17C9.25 17.9665 8.4665 18.75 7.5 18.75C6.5335 18.75 5.75 17.9665 5.75 17M9.25 17C9.25 16.0335 8.4665 15.25 7.5 15.25C6.5335 15.25 5.75 16.0335 5.75 17M1.375 17L5.75 17M16.25 10L20.625 10M16.25 10C16.25 10.9665 15.4665 11.75 14.5 11.75C13.5335 11.75 12.75 10.9665 12.75 10M16.25 10C16.25 9.0335 15.4665 8.25 14.5 8.25C13.5335 8.25 12.75 9.0335 12.75 10M1.375 10H12.75" stroke="#121419" stroke-width="1.5" stroke-linecap="round" stroke-linejoin="round"/>
</svg>
