<svg width="18" height="18" viewBox="0 0 18 18" fill="none" xmlns="http://www.w3.org/2000/svg">
<path d="M1.5 1.5V2.75M1.5 16.5V11.5M1.5 11.5L3.80841 10.9229C5.54529 10.4887 7.3802 10.6901 8.98153 11.4908L9.0713 11.5356C10.6406 12.3203 12.4353 12.5299 14.1432 12.1281L16.7384 11.5174C16.5809 10.075 16.5 8.60942 16.5 7.125C16.5 5.65285 16.5795 4.19928 16.7345 2.76835L14.1432 3.37807C12.4353 3.77993 10.6406 3.5703 9.0713 2.78565L8.98153 2.74076C7.3802 1.9401 5.54529 1.73868 3.80841 2.1729L1.5 2.75M1.5 11.5V2.75" stroke="#121419" stroke-width="1.5" stroke-linecap="round" stroke-linejoin="round"/>
</svg>
