<svg width="16" height="18" viewBox="0 0 16 18" fill="none" xmlns="http://www.w3.org/2000/svg">
<path d="M10.9737 3.34468C13.3741 4.41724 15.0469 6.82563 15.0469 9.62471C15.0469 13.4217 11.9688 16.4997 8.17188 16.4997C4.37492 16.4997 1.29688 13.4217 1.29688 9.62471C1.29688 7.78134 2.02236 6.10741 3.20338 4.87288C3.84213 5.76489 4.68895 6.49776 5.67288 7.00054C5.71047 4.68748 6.79519 2.62898 8.47363 1.27844C9.10982 2.13157 9.95344 2.84851 10.9737 3.34468Z" stroke="#757C91" stroke-width="1.5" stroke-linecap="round" stroke-linejoin="round"/>
<path d="M8.17188 14C9.89777 14 11.2969 12.6009 11.2969 10.875C11.2969 9.28895 10.1153 7.97885 8.58428 7.77701C7.74401 8.53079 7.16037 9.5649 6.98046 10.7322C6.32829 10.5728 5.72628 10.2854 5.20256 9.89827C5.10153 10.2056 5.04688 10.5339 5.04688 10.875C5.04688 12.6009 6.44599 14 8.17188 14Z" stroke="#757C91" stroke-width="1.5" stroke-linecap="round" stroke-linejoin="round"/>
</svg>
