<svg width="16" height="18" viewBox="0 0 16 18" fill="none" xmlns="http://www.w3.org/2000/svg">
<path d="M5.99473 2.28338C6.07007 1.83132 6.46119 1.5 6.91947 1.5H9.08111C9.5394 1.5 9.93051 1.83132 10.0059 2.28338L10.1838 3.35092C10.2357 3.66262 10.444 3.92226 10.7205 4.0753C10.7823 4.10952 10.8434 4.14486 10.9038 4.18131C11.1746 4.34487 11.5041 4.39572 11.8004 4.28471L12.8144 3.90481C13.2436 3.74404 13.7261 3.91709 13.9552 4.31398L15.0361 6.18601C15.2652 6.5829 15.1738 7.08728 14.82 7.37855L13.9831 8.06756C13.7393 8.26823 13.6185 8.5781 13.6243 8.89377C13.625 8.9291 13.6253 8.96451 13.6253 9C13.6253 9.03548 13.625 9.07089 13.6243 9.10621C13.6185 9.42189 13.7393 9.73176 13.9831 9.93243L14.82 10.6214C15.1738 10.9127 15.2652 11.4171 15.0361 11.814L13.9552 13.686C13.7261 14.0829 13.2436 14.256 12.8144 14.0952L11.8004 13.7153C11.5041 13.6043 11.1747 13.6551 10.9038 13.8187C10.8434 13.8551 10.7823 13.8905 10.7205 13.9247C10.444 14.0777 10.2357 14.3374 10.1838 14.6491L10.0059 15.7166C9.93051 16.1687 9.5394 16.5 9.08111 16.5H6.91947C6.46119 16.5 6.07007 16.1687 5.99473 15.7166L5.8168 14.6491C5.76485 14.3374 5.55654 14.0777 5.28007 13.9247C5.21826 13.8905 5.15716 13.8551 5.0968 13.8187C4.82594 13.6551 4.49649 13.6043 4.20019 13.7153L3.18613 14.0952C2.75698 14.256 2.27448 14.0829 2.04534 13.686L0.964521 11.814C0.735377 11.4171 0.826755 10.9127 1.18057 10.6215L2.01753 9.93244C2.26129 9.73177 2.38212 9.4219 2.37627 9.10623C2.37562 9.0709 2.37529 9.03549 2.37529 9C2.37529 8.96452 2.37562 8.92911 2.37627 8.89379C2.38212 8.57811 2.26129 8.26824 2.01753 8.06758L1.18057 7.37856C0.826755 7.08729 0.735377 6.58291 0.96452 6.18602L2.04534 4.31399C2.27448 3.9171 2.75698 3.74405 3.18613 3.90483L4.20018 4.28472C4.49648 4.39573 4.82593 4.34487 5.09679 4.18132C5.15715 4.14487 5.21825 4.10952 5.28007 4.0753C5.55654 3.92226 5.76485 3.66262 5.8168 3.35092L5.99473 2.28338Z" stroke="#121419" stroke-width="1.5" stroke-linecap="round" stroke-linejoin="round"/>
<path d="M10.5001 8.99993C10.5001 10.3806 9.38081 11.4999 8.0001 11.4999C6.61939 11.4999 5.5001 10.3806 5.5001 8.99993C5.5001 7.61922 6.61939 6.49993 8.0001 6.49993C9.38081 6.49993 10.5001 7.61922 10.5001 8.99993Z" stroke="#121419" stroke-width="1.5" stroke-linecap="round" stroke-linejoin="round"/>
</svg>
