<svg width="28" height="22" viewBox="0 0 28 22" fill="none" xmlns="http://www.w3.org/2000/svg">
<path d="M1 16L7.87868 9.12132C9.05025 7.94974 10.9497 7.94975 12.1213 9.12132L19 16M17 14L18.8787 12.1213C20.0503 10.9497 21.9497 10.9497 23.1213 12.1213L27 16M3 21H25C26.1046 21 27 20.1046 27 19V3C27 1.89543 26.1046 1 25 1H3C1.89543 1 1 1.89543 1 3V19C1 20.1046 1.89543 21 3 21ZM17 6H17.01V6.01H17V6ZM17.5 6C17.5 6.27614 17.2761 6.5 17 6.5C16.7239 6.5 16.5 6.27614 16.5 6C16.5 5.72386 16.7239 5.5 17 5.5C17.2761 5.5 17.5 5.72386 17.5 6Z" stroke="#121419" stroke-width="1.5" stroke-linecap="round" stroke-linejoin="round"/>
</svg>
