<svg width="24" height="25" viewBox="0 0 24 25" fill="none" xmlns="http://www.w3.org/2000/svg">
<g clip-path="url(#clip0_1207_316549)">
<path d="M12.0011 0.90332C8.74209 0.90332 8.33309 0.917571 7.05307 0.975823C5.77556 1.03433 4.90355 1.23658 4.14054 1.53335C3.35128 1.83986 2.68178 2.24987 2.01477 2.91715C1.34726 3.58418 0.93726 4.25371 0.629756 5.04274C0.332253 5.80602 0.129751 6.6783 0.0722506 7.95536C0.015 9.23541 0 9.64468 0 12.9038C0 16.1629 0.0145004 16.5707 0.072501 17.8508C0.131252 19.1283 0.333504 20.0003 0.630007 20.7634C0.93676 21.5527 1.34676 22.2222 2.01402 22.8892C2.68078 23.5567 3.35028 23.9678 4.13904 24.2743C4.90255 24.571 5.77481 24.7733 7.05207 24.8318C8.33209 24.89 8.74084 24.9043 11.9996 24.9043C15.2589 24.9043 15.6667 24.89 16.9467 24.8318C18.2242 24.7733 19.0972 24.571 19.8607 24.2743C20.6497 23.9678 21.3182 23.5567 21.985 22.8892C22.6525 22.2222 23.0625 21.5527 23.37 20.7636C23.665 20.0003 23.8675 19.1281 23.9275 17.851C23.985 16.571 24 16.1629 24 12.9038C24 9.64468 23.985 9.23566 23.9275 7.95561C23.8675 6.67805 23.665 5.80602 23.37 5.04299C23.0625 4.25371 22.6525 3.58418 21.985 2.91715C21.3175 2.24962 20.65 1.83961 19.86 1.53335C19.0949 1.23658 18.2224 1.03433 16.9449 0.975823C15.6649 0.917571 15.2574 0.90332 11.9974 0.90332H12.0011ZM10.9246 3.06591C11.2441 3.06541 11.6006 3.06591 12.0011 3.06591C15.2052 3.06591 15.5849 3.07741 16.8502 3.13491C18.0202 3.18841 18.6552 3.38392 19.0782 3.54818C19.6382 3.76569 20.0375 4.0257 20.4572 4.44571C20.8772 4.86573 21.1372 5.26575 21.3552 5.82577C21.5195 6.24829 21.7152 6.88331 21.7685 8.05336C21.826 9.31841 21.8385 9.69843 21.8385 12.9011C21.8385 16.1037 21.826 16.4837 21.7685 17.7488C21.715 18.9188 21.5195 19.5538 21.3552 19.9763C21.1377 20.5364 20.8772 20.9351 20.4572 21.3549C20.0372 21.7749 19.6385 22.0349 19.0782 22.2524C18.6557 22.4174 18.0202 22.6124 16.8502 22.666C15.5852 22.7235 15.2052 22.736 12.0011 22.736C8.79684 22.736 8.41709 22.7235 7.15208 22.666C5.98206 22.6119 5.34706 22.4164 4.9238 22.2522C4.3638 22.0347 3.96379 21.7747 3.54379 21.3547C3.12378 20.9346 2.86378 20.5356 2.64578 19.9753C2.48153 19.5528 2.28577 18.9178 2.23252 17.7478C2.17502 16.4827 2.16352 16.1027 2.16352 12.8981C2.16352 9.69343 2.17502 9.31541 2.23252 8.05036C2.28602 6.88031 2.48153 6.24529 2.64578 5.82227C2.86328 5.26225 3.12378 4.86223 3.54379 4.44221C3.96379 4.0222 4.3638 3.76219 4.9238 3.54418C5.34681 3.37917 5.98206 3.18416 7.15208 3.13041C8.25909 3.08041 8.68809 3.06541 10.9246 3.06291V3.06591ZM18.4067 5.05849C17.6117 5.05849 16.9667 5.70276 16.9667 6.49805C16.9667 7.29308 17.6117 7.93811 18.4067 7.93811C19.2017 7.93811 19.8467 7.29308 19.8467 6.49805C19.8467 5.70301 19.2017 5.05849 18.4067 5.05849ZM12.0011 6.74106C8.59784 6.74106 5.83856 9.50042 5.83856 12.9038C5.83856 16.3072 8.59784 19.0653 12.0011 19.0653C15.4044 19.0653 18.1627 16.3072 18.1627 12.9038C18.1627 9.50042 15.4044 6.74106 12.0011 6.74106ZM12.0011 8.90364C14.2101 8.90364 16.0012 10.6945 16.0012 12.9038C16.0012 15.1129 14.2101 16.904 12.0011 16.904C9.79185 16.904 8.00108 15.1129 8.00108 12.9038C8.00108 10.6945 9.79185 8.90364 12.0011 8.90364Z" fill="#FE0077"/>
</g>
<defs>
<clipPath id="clip0_1207_316549">
<rect width="24" height="24.001" fill="white" transform="translate(0 0.90332)"/>
</clipPath>
</defs>
</svg>
