<svg width="13" height="17" viewBox="0 0 13 17" fill="none" xmlns="http://www.w3.org/2000/svg">
<path fill-rule="evenodd" clip-rule="evenodd" d="M7.29407 1.21305C10.4054 1.66175 12.8 4.41834 12.8 7.75193C12.8 11.1406 9.69616 15.3516 7.00574 15.9305C6.92541 16.2605 6.6846 16.5 6.4 16.5C6.09705 16.5 5.8437 16.2285 5.78075 15.8656C3.09521 15.0519 0 11.1347 0 7.75193C0 4.41837 2.3945 1.66181 5.50583 1.21307C5.64687 0.795374 5.99403 0.5 6.39995 0.5C6.80586 0.5 7.15303 0.795367 7.29407 1.21305ZM6.40001 1.74335C6.6325 1.74335 6.82096 1.55488 6.82096 1.3224C6.82096 1.08991 6.6325 0.901445 6.40001 0.901445C6.16753 0.901445 5.97906 1.08991 5.97906 1.3224C5.97906 1.55488 6.16753 1.74335 6.40001 1.74335Z" fill="#AAAEBB"/>
<path d="M4.97169 9.83856H7.75569V10.7266H3.86769V5.44656H4.97169V9.83856Z" fill="#FCFCFC"/>
</svg>
