<svg width="24" height="25" viewBox="0 0 24 25" fill="none" xmlns="http://www.w3.org/2000/svg">
<g clip-path="url(#clip0_1207_316550)">
<path d="M0 2.60685C0 1.66602 0.762697 0.90332 1.70353 0.90332H22.2965C23.2374 0.90332 24.0001 1.66602 24.0001 2.60685V23.1998C24.0001 24.1406 23.2374 24.9033 22.2965 24.9033H1.70353C0.762698 24.9033 0 24.1406 0 23.1998V2.60685Z" fill="#0A66C2"/>
<path d="M5.38767 8.36322C6.53752 8.36322 7.46967 7.43108 7.46967 6.28122C7.46967 5.13136 6.53752 4.19922 5.38767 4.19922C4.23781 4.19922 3.30566 5.13136 3.30566 6.28122C3.30566 7.43108 4.23781 8.36322 5.38767 8.36322Z" fill="white"/>
<path d="M9.37642 9.90188H12.827V11.4826C12.827 11.4826 13.7633 9.60988 16.311 9.60988C18.5837 9.60988 20.4663 10.7294 20.4663 14.1419V21.3379H16.8905V15.0139C16.8905 13.0009 15.8158 12.7794 14.9969 12.7794C13.2973 12.7794 13.0063 14.2455 13.0063 15.2765V21.3379H9.37642V9.90188Z" fill="white"/>
<path d="M3.57273 9.90189H7.2026V21.338H3.57273V9.90189Z" fill="white"/>
</g>
<defs>
<clipPath id="clip0_1207_316550">
<rect width="24" height="24" fill="white" transform="translate(0 0.90332)"/>
</clipPath>
</defs>
</svg>
