<svg width="34" height="24" viewBox="0 0 34 24" fill="none" xmlns="http://www.w3.org/2000/svg">
<rect x="0.5" y="0.5" width="32.3333" height="23" rx="3.5" fill="white"/>
<rect x="0.5" y="0.5" width="32.3333" height="23" rx="3.5" stroke="#F4F4F6"/>
<g clip-path="url(#clip0_1238_125131)">
<path d="M20.092 5.71094H13.2422V18.2887H20.092V5.71094Z" fill="#FF5F00"/>
<path d="M13.6765 11.9979C13.6765 9.5535 14.7856 7.22017 16.6557 5.70905C13.2634 2.97572 8.34893 3.57572 5.67425 7.06461C2.99957 10.5313 3.5867 15.5535 7.00072 18.2868C9.84936 20.5757 13.8288 20.5757 16.6774 18.2868C14.7856 16.7757 13.6765 14.4424 13.6765 11.9979Z" fill="#EB001B"/>
<path d="M29.3335 11.9979C29.3335 16.4202 25.8325 19.9979 21.5052 19.9979C19.7438 19.9979 18.0477 19.3979 16.6777 18.2868C20.07 15.5535 20.6571 10.5313 17.9825 7.04239C17.591 6.5535 17.1561 6.08683 16.6777 5.70905C20.07 2.97572 25.0062 3.57572 27.6591 7.06461C28.7464 8.46461 29.3335 10.1979 29.3335 11.9979Z" fill="#F79E1B"/>
<path d="M28.5946 16.9556V16.689H28.7033V16.6445H28.4424V16.689H28.5511V16.9556H28.5946ZM29.0947 16.9556V16.6445H29.0078L28.9208 16.8668L28.8338 16.6445H28.7468V16.9556H28.8121V16.7112L28.899 16.9112H28.9643L29.0513 16.7112V16.9556H29.0947Z" fill="#F79E1B"/>
</g>
<defs>
<clipPath id="clip0_1238_125131">
<rect width="25.3333" height="16" fill="white" transform="translate(4 4)"/>
</clipPath>
</defs>
</svg>
