<svg width="21" height="18" viewBox="0 0 21 18" fill="none" xmlns="http://www.w3.org/2000/svg">
<path d="M20.25 3.75V14.25C20.25 15.4926 19.2426 16.5 18 16.5H3C1.75736 16.5 0.75 15.4926 0.75 14.25V3.75M20.25 3.75C20.25 2.50736 19.2426 1.5 18 1.5H3C1.75736 1.5 0.75 2.50736 0.75 3.75M20.25 3.75V3.99271C20.25 4.77405 19.8447 5.49945 19.1792 5.90894L11.6792 10.5243C10.9561 10.9694 10.0439 10.9694 9.32078 10.5243L1.82078 5.90894C1.15535 5.49945 0.75 4.77405 0.75 3.99271V3.75" stroke="#121419" stroke-width="1.5" stroke-linecap="round" stroke-linejoin="round"/>
</svg>
