<svg width="21" height="20" viewBox="0 0 21 20" fill="none" xmlns="http://www.w3.org/2000/svg">
<path d="M8.84044 13.8398C8.15153 13.7803 7.45431 13.75 6.75 13.75H6C3.51472 13.75 1.5 11.7353 1.5 9.25C1.5 6.76472 3.51472 4.75 6 4.75H6.75C7.45431 4.75 8.15153 4.71966 8.84044 4.66022M8.84044 13.8398C9.09329 14.8015 9.42372 15.7317 9.82463 16.6234C10.0721 17.1738 9.88422 17.8328 9.3616 18.1345L8.70529 18.5134C8.1539 18.8318 7.4456 18.6306 7.17841 18.0527C6.5518 16.6973 6.06541 15.2639 5.73786 13.771M8.84044 13.8398C8.45517 12.3745 8.25 10.8362 8.25 9.25C8.25 7.66379 8.45518 6.1255 8.84044 4.66022M8.84044 13.8398C12 14.1124 14.9845 14.9972 17.6747 16.3749M8.84044 4.66022C12 4.3876 14.9845 3.50283 17.6747 2.12509M17.6747 2.12509C17.557 1.74595 17.4302 1.37083 17.2944 1M17.6747 2.12509C18.2097 3.84827 18.5557 5.65462 18.6886 7.51991M17.6747 16.3749C17.557 16.7541 17.4302 17.1292 17.2944 17.5M17.6747 16.3749C18.2097 14.6517 18.5557 12.8454 18.6886 10.9801M18.6886 7.51991C19.1844 7.93264 19.5 8.55446 19.5 9.25C19.5 9.94553 19.1844 10.5674 18.6886 10.9801M18.6886 7.51991C18.7293 8.09131 18.75 8.66824 18.75 9.25C18.75 9.83176 18.7293 10.4087 18.6886 10.9801" stroke="#121419" stroke-width="1.5" stroke-linecap="round" stroke-linejoin="round"/>
</svg>
