<svg width="16" height="17" viewBox="0 0 16 17" fill="none" xmlns="http://www.w3.org/2000/svg">
<path fill-rule="evenodd" clip-rule="evenodd" d="M8.00039 1.30078C6.01217 1.30078 4.40039 2.91256 4.40039 4.90078V7.70078H4.00039C3.11674 7.70078 2.40039 8.41713 2.40039 9.30078V14.1008C2.40039 14.9844 3.11674 15.7008 4.00039 15.7008H12.0004C12.884 15.7008 13.6004 14.9844 13.6004 14.1008V9.30078C13.6004 8.41713 12.884 7.70078 12.0004 7.70078H11.6004V4.90078C11.6004 2.91256 9.98862 1.30078 8.00039 1.30078ZM10.4004 7.70078V4.90078C10.4004 3.5753 9.32587 2.50078 8.00039 2.50078C6.67491 2.50078 5.60039 3.5753 5.60039 4.90078V7.70078H10.4004Z" fill="#AAAEBB"/>
</svg>
