<svg width="14" height="18" viewBox="0 0 14 18" fill="none" xmlns="http://www.w3.org/2000/svg">
<path fill-rule="evenodd" clip-rule="evenodd" d="M1.6875 0.25C0.824555 0.25 0.125 0.949555 0.125 1.8125V16.1875C0.125 17.0504 0.824555 17.75 1.6875 17.75H12.3125C13.1754 17.75 13.875 17.0504 13.875 16.1875V9.625C13.875 7.89911 12.4759 6.5 10.75 6.5H9.1875C8.32455 6.5 7.625 5.80044 7.625 4.9375V3.375C7.625 1.64911 6.22589 0.25 4.5 0.25H1.6875ZM3.25 11.5C3.25 11.1548 3.52982 10.875 3.875 10.875H10.125C10.4702 10.875 10.75 11.1548 10.75 11.5C10.75 11.8452 10.4702 12.125 10.125 12.125H3.875C3.52982 12.125 3.25 11.8452 3.25 11.5ZM3.875 13.375C3.52982 13.375 3.25 13.6548 3.25 14C3.25 14.3452 3.52982 14.625 3.875 14.625H7C7.34518 14.625 7.625 14.3452 7.625 14C7.625 13.6548 7.34518 13.375 7 13.375H3.875Z" fill="#AAAEBB"/>
<path d="M7.80933 0.513254C8.4733 1.2804 8.875 2.28079 8.875 3.375V4.9375C8.875 5.11009 9.01491 5.25 9.1875 5.25H10.75C11.8442 5.25 12.8446 5.6517 13.6117 6.31567C12.8719 3.48323 10.6418 1.25315 7.80933 0.513254Z" fill="#AAAEBB"/>
</svg>
