<svg width="21" height="22" viewBox="0 0 21 22" fill="none" xmlns="http://www.w3.org/2000/svg">
<path d="M0.75 5.75C0.75 14.0343 7.46573 20.75 15.75 20.75H18C19.2426 20.75 20.25 19.7426 20.25 18.5V17.1284C20.25 16.6121 19.8987 16.1622 19.3979 16.037L14.9747 14.9312C14.5355 14.8214 14.0734 14.9855 13.8018 15.3476L12.8316 16.6412C12.55 17.0166 12.063 17.1827 11.6223 17.0212C8.31539 15.8098 5.69015 13.1846 4.47876 9.87766C4.31734 9.43699 4.48336 8.94998 4.8588 8.6684L6.15242 7.69818C6.51453 7.4266 6.67861 6.96445 6.56883 6.52533L5.46304 2.10215C5.33783 1.60133 4.88785 1.25 4.37163 1.25H3C1.75736 1.25 0.75 2.25736 0.75 3.5V5.75Z" stroke="#121419" stroke-width="1.5" stroke-linecap="round" stroke-linejoin="round"/>
</svg>
