<svg width="19" height="19" viewBox="0 0 19 19" fill="none" xmlns="http://www.w3.org/2000/svg">
<path d="M5.97967 13.0136L1.26562 17.7277M8.74441 5.53489L7.44367 6.83562C7.33757 6.94173 7.28452 6.99478 7.22407 7.03693C7.17042 7.07435 7.11255 7.10532 7.05166 7.12921C6.98306 7.15611 6.90949 7.17083 6.76235 7.20026L3.70863 7.811C2.91504 7.96972 2.51825 8.04908 2.33262 8.25829C2.1709 8.44055 2.09705 8.68446 2.13051 8.92581C2.16891 9.20286 2.45505 9.48899 3.02731 10.0613L8.93209 15.966C9.50435 16.5383 9.79049 16.8244 10.0675 16.8628C10.3089 16.8963 10.5528 16.8224 10.7351 16.6607C10.9443 16.4751 11.0236 16.0783 11.1823 15.2847L11.7931 12.231C11.8225 12.0839 11.8372 12.0103 11.8641 11.9417C11.888 11.8808 11.919 11.8229 11.9564 11.7693C11.9986 11.7088 12.0516 11.6558 12.1577 11.5497L13.4585 10.2489C13.5263 10.1811 13.5602 10.1472 13.5975 10.1176C13.6306 10.0913 13.6657 10.0675 13.7024 10.0465C13.7438 10.0229 13.7879 10.004 13.876 9.96621L15.9547 9.07537C16.5611 8.81548 16.8643 8.68553 17.002 8.47555C17.1225 8.29192 17.1656 8.06817 17.1219 7.85294C17.072 7.60682 16.8388 7.37356 16.3723 6.90704L12.0863 2.62109C11.6198 2.15457 11.3865 1.92131 11.1404 1.87141C10.9252 1.82778 10.7014 1.87087 10.5178 1.99132C10.3078 2.12905 10.1779 2.43226 9.91797 3.03867L9.02713 5.1173C8.98934 5.20548 8.97044 5.24957 8.94682 5.29092C8.92584 5.32765 8.90209 5.36272 8.87578 5.39584C8.84617 5.43313 8.81225 5.46705 8.74441 5.53489Z" stroke="#121419" stroke-width="2" stroke-linecap="round" stroke-linejoin="round"/>
</svg>
