<svg width="18" height="18" viewBox="0 0 18 18" fill="none" xmlns="http://www.w3.org/2000/svg">
<path d="M7.71967 6.28855C7.90901 6.13814 8.13392 6.02876 8.375 5.96041V8.28954C8.12931 8.21978 7.90503 8.10869 7.71967 7.96145C7.39156 7.7008 7.2646 7.39413 7.2646 7.125C7.2646 6.85587 7.39156 6.5492 7.71967 6.28855Z" fill="#AAAEBB"/>
<path d="M9.625 12.0513V9.69861C9.91437 9.76898 10.1781 9.88816 10.3928 10.0491C10.7482 10.3157 10.875 10.6207 10.875 10.875C10.875 11.1292 10.7482 11.4343 10.3928 11.7008C10.1781 11.8618 9.91437 11.981 9.625 12.0513Z" fill="#AAAEBB"/>
<path fill-rule="evenodd" clip-rule="evenodd" d="M9 0.875C4.51269 0.875 0.875 4.51269 0.875 9C0.875 13.4873 4.51269 17.125 9 17.125C13.4873 17.125 17.125 13.4873 17.125 9C17.125 4.51269 13.4873 0.875 9 0.875ZM9.625 4C9.625 3.65482 9.34518 3.375 9 3.375C8.65482 3.375 8.375 3.65482 8.375 4V4.67969C7.85259 4.77224 7.35444 4.98228 6.94215 5.3098C6.34852 5.78138 6.0146 6.43442 6.0146 7.125C6.0146 7.81558 6.34852 8.46862 6.94215 8.9402C7.36087 9.27283 7.86055 9.47918 8.375 9.57028V12.0513C8.0857 11.9809 7.822 11.8618 7.6074 11.7008L6.87501 11.1515C6.59887 10.9444 6.20712 11.0003 6.00001 11.2765C5.7929 11.5526 5.84885 11.9444 6.12499 12.1515L6.85738 12.7008C7.30172 13.0341 7.83162 13.238 8.375 13.3253V14C8.375 14.3452 8.65482 14.625 9 14.625C9.34518 14.625 9.625 14.3452 9.625 14V13.3253C10.1685 13.238 10.6984 13.0341 11.1428 12.7008C11.7637 12.2351 12.125 11.5804 12.125 10.875C12.125 10.1695 11.7637 9.51484 11.1428 9.04916C10.6984 8.71586 10.1685 8.51194 9.625 8.42465V5.96047C9.86599 6.02883 10.0908 6.13819 10.2801 6.28855L10.6258 6.56321C10.8961 6.77792 11.2893 6.73287 11.504 6.46259C11.7187 6.19232 11.6736 5.79916 11.4034 5.58445L11.0576 5.3098C10.6454 4.98233 10.1473 4.7723 9.625 4.67973V4Z" fill="#AAAEBB"/>
</svg>
