<svg width="18" height="18" viewBox="0 0 18 18" fill="none" xmlns="http://www.w3.org/2000/svg">
<path fill-rule="evenodd" clip-rule="evenodd" d="M14.5711 14.9142C16.1435 13.4326 17.125 11.3309 17.125 9C17.125 4.51269 13.4873 0.875 9 0.875C4.51269 0.875 0.875 4.51269 0.875 9C0.875 11.3309 1.85654 13.4326 3.42886 14.9142C4.88343 16.2849 6.84361 17.125 9 17.125C11.1564 17.125 13.1166 16.2849 14.5711 14.9142ZM4.12094 13.8436C5.26635 12.4148 7.02634 11.5 9 11.5C10.9737 11.5 12.7337 12.4148 13.8791 13.8436C12.6336 15.0982 10.9075 15.875 9 15.875C7.0925 15.875 5.36644 15.0982 4.12094 13.8436ZM12.125 6.5C12.125 8.22589 10.7259 9.625 9 9.625C7.27411 9.625 5.875 8.22589 5.875 6.5C5.875 4.77411 7.27411 3.375 9 3.375C10.7259 3.375 12.125 4.77411 12.125 6.5Z" fill="#AAAEBB"/>
</svg>
