<svg width="25" height="22" viewBox="0 0 25 22" fill="none" xmlns="http://www.w3.org/2000/svg">
<path d="M11.3087 13.2795V15.9044C11.3087 16.405 10.9029 16.8108 10.4023 16.8108H6.7767C6.27611 16.8108 5.8703 16.405 5.8703 15.9044V13.2795M2.93546 13.2795H21.9153M7.17678 0.759766H4.438C2.92541 0.759766 1.69922 1.98596 1.69922 3.49855V6.23733M7.17678 21.2414H4.438C2.92541 21.2414 1.69922 20.0152 1.69922 18.5026V15.7639M17.8217 0.759766H20.5604C22.073 0.759766 23.2992 1.98596 23.2992 3.49855V6.23733M17.8217 21.2414H20.5604C22.073 21.2414 23.2992 20.0152 23.2992 18.5026V15.7639M6.7767 9.86827H10.4023C10.9029 9.86827 11.3087 9.46246 11.3087 8.96187V5.33628C11.3087 4.83569 10.9029 4.42989 10.4023 4.42989H6.7767C6.27611 4.42989 5.8703 4.83569 5.8703 5.33628V8.96187C5.8703 9.46246 6.27611 9.86827 6.7767 9.86827ZM14.6321 9.86827H18.2577C18.7583 9.86827 19.1641 9.46246 19.1641 8.96187V5.33628C19.1641 4.83569 18.7583 4.42989 18.2577 4.42989H14.6321C14.1316 4.42989 13.7258 4.83569 13.7258 5.33628V8.96187C13.7258 9.46246 14.1316 9.86827 14.6321 9.86827ZM8.28736 6.84695H8.89162V7.45121H8.28736V6.84695ZM8.28736 13.7895H8.89162V14.3937H8.28736V13.7895ZM16.1428 6.84695H16.7471V7.45121H16.1428V6.84695ZM13.7258 16.2065H14.33V16.8108H13.7258V16.2065ZM18.5598 16.2065H19.1641V16.8108H18.5598V16.2065ZM16.1428 13.7895H16.7471V14.3937H16.1428V13.7895Z" stroke="#121419" stroke-width="1.5" stroke-linecap="round" stroke-linejoin="round"/>
</svg>
