<svg width="38" height="52" viewBox="0 0 38 52" fill="none" xmlns="http://www.w3.org/2000/svg">
<g filter="url(#filter0_d_4449_40436)">
<path d="M18.7979 41.3921L13.8219 45.7036V28.5247H24.5548V45.7036L19.5788 41.3921L19.1883 41.0538L18.7979 41.3921Z" fill="#EBECEF" stroke="#F4F4F6" stroke-width="1.19255"/>
<path d="M34.5425 18.3881C34.5425 16.3718 34.1454 14.3752 33.3738 12.5124C32.6022 10.6496 31.4712 8.95695 30.0454 7.53119C28.6197 6.10544 26.9271 4.97447 25.0642 4.20285C23.2014 3.43124 21.2048 3.0341 19.1885 3.0341C17.1722 3.0341 15.1756 3.43124 13.3128 4.20285C11.4499 4.97447 9.7573 6.10544 8.33155 7.53119C6.90579 8.95694 5.77482 10.6496 5.00321 12.5124C4.2316 14.3752 3.83445 16.3718 3.83445 18.3881C3.83445 20.4045 4.2316 22.401 5.00321 24.2639C5.77482 26.1267 6.90579 27.8193 8.33154 29.2451C9.7573 30.6708 11.4499 31.8018 13.3128 32.5734C15.1756 33.345 17.1722 33.7422 19.1885 33.7422C21.2048 33.7422 23.2014 33.345 25.0642 32.5734C26.9271 31.8018 28.6197 30.6708 30.0454 29.2451C31.4712 27.8193 32.6022 26.1267 33.3738 24.2639C34.1454 22.401 34.5425 20.4045 34.5425 18.3881L34.5425 18.3881Z" stroke="#F4F4F6" stroke-width="2.08696" stroke-linejoin="round"/>
<circle cx="19.1885" cy="18.3881" r="14.3106" fill="#EBECEF"/>
<path d="M29.1233 17.273C29.1233 12.3036 25.4051 8.19444 20.5738 7.52558C20.3547 6.90295 19.8157 6.46265 19.1854 6.46265C18.5551 6.46265 18.016 6.90296 17.797 7.5256C12.9657 8.19454 9.24756 12.3037 9.24756 17.273C9.24756 22.3156 14.0538 28.1549 18.2239 29.3678C18.3216 29.9089 18.715 30.3136 19.1854 30.3136C19.6274 30.3136 20.0013 29.9565 20.126 29.4647C24.3037 28.6017 29.1233 22.3244 29.1233 17.273Z" fill="#F6F7F8"/>
</g>
<defs>
<filter id="filter0_d_4449_40436" x="0.405923" y="1.9906" width="37.5651" height="49.7888" filterUnits="userSpaceOnUse" color-interpolation-filters="sRGB">
<feFlood flood-opacity="0" result="BackgroundImageFix"/>
<feColorMatrix in="SourceAlpha" type="matrix" values="0 0 0 0 0 0 0 0 0 0 0 0 0 0 0 0 0 0 127 0" result="hardAlpha"/>
<feOffset dy="2.38509"/>
<feGaussianBlur stdDeviation="1.19255"/>
<feComposite in2="hardAlpha" operator="out"/>
<feColorMatrix type="matrix" values="0 0 0 0 0.252198 0 0 0 0 0.296459 0 0 0 0 0.0640874 0 0 0 0.15 0"/>
<feBlend mode="normal" in2="BackgroundImageFix" result="effect1_dropShadow_4449_40436"/>
<feBlend mode="normal" in="SourceGraphic" in2="effect1_dropShadow_4449_40436" result="shape"/>
</filter>
</defs>
</svg>
