<svg width="23" height="21" viewBox="0 0 23 21" fill="none" xmlns="http://www.w3.org/2000/svg">
<path d="M8.375 1.75781C7.33947 1.75781 6.5 2.59728 6.5 3.63281C6.5 4.66835 7.33947 5.50781 8.375 5.50781H10.25V10.0078H2.375C1.33947 10.0078 0.5 9.16835 0.5 8.13281V7.38281C0.5 6.34728 1.33947 5.50781 2.375 5.50781H5.56833C5.20935 4.97153 5 4.32662 5 3.63281C5 1.76885 6.51104 0.257812 8.375 0.257812C9.43523 0.257812 10.3813 0.746689 11 1.51131C11.6187 0.746689 12.5648 0.257812 13.625 0.257812C15.489 0.257812 17 1.76885 17 3.63281C17 4.32662 16.7906 4.97153 16.4317 5.50781H20.375C21.4105 5.50781 22.25 6.34728 22.25 7.38281V8.13281C22.25 9.16835 21.4105 10.0078 20.375 10.0078H11.75V5.50781H13.625C14.6605 5.50781 15.5 4.66835 15.5 3.63281C15.5 2.59728 14.6605 1.75781 13.625 1.75781C12.5895 1.75781 11.75 2.59728 11.75 3.63281V5.50781H10.25V3.63281C10.25 2.59728 9.41053 1.75781 8.375 1.75781Z" fill="#80BC00"/>
<path d="M10.25 11.5078H2V18.2578C2 19.5005 3.00736 20.5078 4.25 20.5078H10.25V11.5078Z" fill="#80BC00"/>
<path d="M11.75 11.5078V20.5078H18.5C19.7426 20.5078 20.75 19.5005 20.75 18.2578V11.5078H11.75Z" fill="#80BC00"/>
</svg>
