<svg width="15" height="14" viewBox="0 0 15 14" fill="none" xmlns="http://www.w3.org/2000/svg">
<path d="M5.25 1.5C4.55964 1.5 4 2.05964 4 2.75C4 3.44036 4.55964 4 5.25 4H6.5V7H1.25C0.559645 7 0 6.44036 0 5.75V5.25C0 4.55964 0.559644 4 1.25 4H3.37889C3.13957 3.64248 3 3.21254 3 2.75C3 1.50736 4.00736 0.5 5.25 0.5C5.95682 0.5 6.58751 0.825917 7 1.33567C7.41249 0.825917 8.04318 0.5 8.75 0.5C9.99264 0.5 11 1.50736 11 2.75C11 3.21254 10.8604 3.64248 10.6211 4H13.25C13.9404 4 14.5 4.55964 14.5 5.25V5.75C14.5 6.44036 13.9404 7 13.25 7H7.5V4H8.75C9.44036 4 10 3.44036 10 2.75C10 2.05964 9.44036 1.5 8.75 1.5C8.05964 1.5 7.5 2.05964 7.5 2.75V4H6.5V2.75C6.5 2.05964 5.94036 1.5 5.25 1.5Z" fill="#AAAEBB"/>
<path d="M6.5 8H1V12.5C1 13.3284 1.67157 14 2.5 14H6.5V8Z" fill="#AAAEBB"/>
<path d="M7.5 8V14H12C12.8284 14 13.5 13.3284 13.5 12.5V8H7.5Z" fill="#AAAEBB"/>
</svg>
