<svg width="19" height="18" viewBox="0 0 19 18" fill="none" xmlns="http://www.w3.org/2000/svg">
<path d="M6.8125 1.5C5.94956 1.5 5.25 2.19956 5.25 3.0625C5.25 3.92545 5.94956 4.625 6.8125 4.625H8.375V8.375H1.8125C0.949556 8.375 0.25 7.67545 0.25 6.8125V6.1875C0.25 5.32456 0.949555 4.625 1.8125 4.625H4.47361C4.17446 4.17809 4 3.64067 4 3.0625C4 1.5092 5.2592 0.25 6.8125 0.25C7.69602 0.25 8.48439 0.657397 9 1.29458C9.51561 0.657397 10.304 0.25 11.1875 0.25C12.7408 0.25 14 1.5092 14 3.0625C14 3.64067 13.8255 4.17809 13.5264 4.625H16.8125C17.6754 4.625 18.375 5.32455 18.375 6.1875V6.8125C18.375 7.67544 17.6754 8.375 16.8125 8.375H9.625V4.625H11.1875C12.0504 4.625 12.75 3.92545 12.75 3.0625C12.75 2.19956 12.0504 1.5 11.1875 1.5C10.3246 1.5 9.625 2.19956 9.625 3.0625V4.625H8.375V3.0625C8.375 2.19956 7.67545 1.5 6.8125 1.5Z" fill="#AAAEBB"/>
<path d="M8.375 9.625H1.5V15.25C1.5 16.2855 2.33947 17.125 3.375 17.125H8.375V9.625Z" fill="#AAAEBB"/>
<path d="M9.625 9.625V17.125H15.25C16.2855 17.125 17.125 16.2855 17.125 15.25V9.625H9.625Z" fill="#AAAEBB"/>
</svg>
