<svg width="18" height="18" viewBox="0 0 18 18" fill="none" xmlns="http://www.w3.org/2000/svg">
<path d="M14 5.25V7.75M14 7.75V10.25M14 7.75H16.5M14 7.75H11.5M9.625 4.3125C9.625 5.8658 8.3658 7.125 6.8125 7.125C5.2592 7.125 4 5.8658 4 4.3125C4 2.7592 5.2592 1.5 6.8125 1.5C8.3658 1.5 9.625 2.7592 9.625 4.3125ZM1.50077 15.0286C1.50026 14.9983 1.5 14.9679 1.5 14.9375C1.5 12.0035 3.87849 9.625 6.8125 9.625C9.74651 9.625 12.125 12.0035 12.125 14.9375V14.9396C12.125 14.9693 12.1247 14.999 12.1242 15.0286C10.5728 15.9627 8.7554 16.5 6.8125 16.5C4.8696 16.5 3.0522 15.9627 1.50077 15.0286Z" stroke="#121419" stroke-width="1.5" stroke-linecap="round" stroke-linejoin="round"/>
</svg>
