<svg width="16" height="15" viewBox="0 0 16 15" fill="none" xmlns="http://www.w3.org/2000/svg">
<path d="M10.3936 9.07974C10.4632 9.3752 10.5 9.6833 10.5 10C10.5 12.2091 8.70914 14 6.5 14V10.8002M10.3936 9.07974C12.8829 7.26074 14.5 4.31916 14.5 1C11.181 1.00014 8.23965 2.61724 6.42081 5.1065M10.3936 9.07974C9.25459 9.91206 7.93292 10.5093 6.5 10.8002M6.42081 5.1065C6.12518 5.03685 5.81689 5 5.5 5C3.29086 5 1.5 6.79086 1.5 9H4.70048M6.42081 5.1065C5.58857 6.24551 4.99134 7.56713 4.70048 9M6.5 10.8002C6.43106 10.8142 6.36186 10.8275 6.29242 10.8401C5.6878 10.3607 5.13994 9.81279 4.66053 9.20818C4.67313 9.13853 4.68645 9.06914 4.70048 9M3.20794 10.5938C2.47476 11.1408 2 12.0149 2 13C2 13.1579 2.0122 13.313 2.03571 13.4643C2.18703 13.4878 2.34209 13.5 2.5 13.5C3.48505 13.5 4.35922 13.0252 4.90616 12.2921M11 5.5C11 6.05228 10.5523 6.5 10 6.5C9.44771 6.5 9 6.05228 9 5.5C9 4.94772 9.44771 4.5 10 4.5C10.5523 4.5 11 4.94772 11 5.5Z" stroke="#5B8601" stroke-width="1.5" stroke-linecap="round" stroke-linejoin="round"/>
</svg>
