<svg width="20" height="20" viewBox="0 0 20 20" fill="none" xmlns="http://www.w3.org/2000/svg">
<path d="M0.977794 0.404793C0.713055 0.327888 0.427466 0.402422 0.234074 0.598892C0.040681 0.795362 -0.0293357 1.08209 0.0517387 1.34558L2.48402 9.25049H10.9998C11.414 9.25049 11.7498 9.58627 11.7498 10.0005C11.7498 10.4147 11.414 10.7505 10.9998 10.7505H2.48403L0.0518302 18.6551C-0.0292447 18.9186 0.0407732 19.2054 0.234168 19.4018C0.427563 19.5983 0.713155 19.6728 0.977894 19.5959C7.67649 17.6499 13.8972 14.5819 19.423 10.6092C19.619 10.4683 19.7352 10.2416 19.7352 10.0002C19.7352 9.75884 19.619 9.53219 19.423 9.39128C13.8971 5.41866 7.67641 2.3507 0.977794 0.404793Z" fill="url(#paint0_linear_4651_45900)"/>
<defs>
<linearGradient id="paint0_linear_4651_45900" x1="9.87689" y1="0.375" x2="9.87689" y2="19.6257" gradientUnits="userSpaceOnUse">
<stop stop-color="#9BE303"/>
<stop offset="1" stop-color="#7FBB00"/>
</linearGradient>
</defs>
</svg>
