<svg width="18" height="19" viewBox="0 0 18 19" fill="none" xmlns="http://www.w3.org/2000/svg">
<path d="M5.01434 8.84707C4.69413 8.27191 4.08 7.88281 3.375 7.88281C2.33947 7.88281 1.5 8.72228 1.5 9.75781C1.5 10.7933 2.33947 11.6328 3.375 11.6328C4.08 11.6328 4.69413 11.2437 5.01434 10.6686M5.01434 8.84707C5.16447 9.11672 5.25 9.42728 5.25 9.75781C5.25 10.0883 5.16447 10.3989 5.01434 10.6686M5.01434 8.84707L12.9857 4.41856M5.01434 10.6686L12.9857 15.0971M12.9857 15.0971C12.8355 15.3667 12.75 15.6773 12.75 16.0078C12.75 17.0433 13.5895 17.8828 14.625 17.8828C15.6605 17.8828 16.5 17.0433 16.5 16.0078C16.5 14.9723 15.6605 14.1328 14.625 14.1328C13.92 14.1328 13.3059 14.5219 12.9857 15.0971ZM12.9857 4.41856C13.3059 4.99372 13.92 5.38281 14.625 5.38281C15.6605 5.38281 16.5 4.54335 16.5 3.50781C16.5 2.47228 15.6605 1.63281 14.625 1.63281C13.5895 1.63281 12.75 2.47228 12.75 3.50781C12.75 3.83834 12.8355 4.1489 12.9857 4.41856Z" stroke="#5B8601" stroke-width="1.5" stroke-linecap="round" stroke-linejoin="round"/>
</svg>
