<svg width="18" height="18" viewBox="0 0 18 18" fill="none" xmlns="http://www.w3.org/2000/svg">
<path fill-rule="evenodd" clip-rule="evenodd" d="M1.41971 7.22234C0.584178 7.57947 0.0419922 8.47995 0.0419922 9.4399V10.3171C0.0419922 11.5563 0.945576 12.6965 2.21738 12.6965H2.60498C3.44865 12.6965 4.00517 11.9491 4.00517 11.1943V8.56271C4.00517 7.83554 3.48864 7.11523 2.69644 7.06348C2.8722 5.86134 3.52446 4.5369 4.52685 3.44799C5.70406 2.16919 7.2919 1.29297 9.00033 1.29297C12.251 1.29297 14.9674 4.09549 15.3146 7.06284C14.5165 7.10894 13.9955 7.83236 13.9955 8.56271V11.1943C13.9955 11.9198 14.5097 12.6385 15.2988 12.6931C14.9968 14.4753 13.4457 15.8324 11.5775 15.8324H9.71609C9.5052 15.3381 9.04847 14.9552 8.44467 14.9552H6.89428C6.05061 14.9552 5.49409 15.7027 5.49409 16.4574C5.49409 17.2122 6.05061 17.9596 6.89428 17.9596H8.44467C9.04847 17.9596 9.5052 17.5768 9.71609 17.0824H11.5775C14.1915 17.0824 16.3393 15.0863 16.5797 12.5352C17.4159 12.1784 17.9587 11.2775 17.9587 10.3171V9.4399C17.9587 8.48146 17.4182 7.58231 16.5849 7.22403C16.321 3.5609 13.0494 0.0429688 9.00033 0.0429688C6.8556 0.0429688 4.95506 1.1372 3.60719 2.6014C2.3869 3.92701 1.55982 5.62009 1.41971 7.22234Z" fill="#AAAEBB"/>
<path fill-rule="evenodd" clip-rule="evenodd" d="M9.00033 4.83464C6.75556 4.83464 4.83366 6.51986 4.83366 8.72352C4.83366 9.8482 5.34329 10.8487 6.13522 11.5484C6.12726 11.9065 6.02884 12.2396 5.86357 12.524C5.79155 12.648 5.7855 12.803 5.84762 12.9329C5.90974 13.0628 6.03099 13.1486 6.16733 13.1592C6.24296 13.165 6.31927 13.168 6.39616 13.168C7.07517 13.168 7.70437 12.9365 8.21708 12.5439C8.47106 12.5889 8.73292 12.6124 9.00033 12.6124C11.2451 12.6124 13.167 10.9272 13.167 8.72352C13.167 6.51986 11.2451 4.83464 9.00033 4.83464ZM9.00033 9.27908C9.28797 9.27908 9.52116 9.03035 9.52116 8.72352C9.52116 8.4167 9.28797 8.16797 9.00033 8.16797C8.71268 8.16797 8.47949 8.4167 8.47949 8.72352C8.47949 9.03035 8.71268 9.27908 9.00033 9.27908ZM7.95866 8.72352C7.95866 9.03035 7.72547 9.27908 7.43783 9.27908C7.15018 9.27908 6.91699 9.03035 6.91699 8.72352C6.91699 8.4167 7.15018 8.16797 7.43783 8.16797C7.72547 8.16797 7.95866 8.4167 7.95866 8.72352ZM10.5628 9.27908C10.8505 9.27908 11.0837 9.03035 11.0837 8.72352C11.0837 8.4167 10.8505 8.16797 10.5628 8.16797C10.2752 8.16797 10.042 8.4167 10.042 8.72352C10.042 9.03035 10.2752 9.27908 10.5628 9.27908Z" fill="#AAAEBB"/>
</svg>
