<svg width="18" height="14" viewBox="0 0 18 14" fill="none" xmlns="http://www.w3.org/2000/svg">
<path d="M12.75 2V2.625M12.75 5.125V5.75M12.75 8.25V8.875M12.75 11.375V12M5.25 7.625H9.625M5.25 9.5H7.75M1.8125 1.375C1.29473 1.375 0.875 1.79473 0.875 2.3125V4.83446C1.62225 5.26672 2.125 6.07465 2.125 7C2.125 7.92535 1.62225 8.73328 0.875 9.16554V11.6875C0.875 12.2053 1.29473 12.625 1.8125 12.625H16.1875C16.7053 12.625 17.125 12.2053 17.125 11.6875V9.16554C16.3777 8.73328 15.875 7.92535 15.875 7C15.875 6.07465 16.3777 5.26672 17.125 4.83446V2.3125C17.125 1.79473 16.7053 1.375 16.1875 1.375H1.8125Z" stroke="#121419" stroke-width="1.5" stroke-linecap="round" stroke-linejoin="round"/>
</svg>
