<svg width="22" height="16" viewBox="0 0 22 16" fill="none" xmlns="http://www.w3.org/2000/svg">
<path d="M15.5 2V2.75M15.5 5.75V6.5M15.5 9.5V10.25M15.5 13.25V14M6.5 8.75H11.75M6.5 11H9.5M2.375 1.25C1.75368 1.25 1.25 1.75368 1.25 2.375V5.40135C2.1467 5.92006 2.75 6.88958 2.75 8C2.75 9.11042 2.1467 10.0799 1.25 10.5987V13.625C1.25 14.2463 1.75368 14.75 2.375 14.75H19.625C20.2463 14.75 20.75 14.2463 20.75 13.625V10.5987C19.8533 10.0799 19.25 9.11042 19.25 8C19.25 6.88958 19.8533 5.92006 20.75 5.40135V2.375C20.75 1.75368 20.2463 1.25 19.625 1.25H2.375Z" stroke="#121419" stroke-width="1.5" stroke-linecap="round" stroke-linejoin="round"/>
</svg>
