<svg width="14" height="11" viewBox="0 0 14 11" fill="none" xmlns="http://www.w3.org/2000/svg">
<path fill-rule="evenodd" clip-rule="evenodd" d="M0 1.75C0 1.05964 0.559644 0.5 1.25 0.5H12.75C13.4404 0.5 14 1.05964 14 1.75V3.76756C14 3.94605 13.9049 4.111 13.7504 4.20037C13.3007 4.46048 13 4.94542 13 5.5C13 6.05458 13.3007 6.53952 13.7504 6.79963C13.9049 6.889 14 7.05395 14 7.23244V9.25C14 9.94036 13.4404 10.5 12.75 10.5H1.25C0.559644 10.5 0 9.94036 0 9.25V7.23244C0 7.05395 0.0951411 6.889 0.249637 6.79963C0.699293 6.53952 1 6.05458 1 5.5C1 4.94542 0.699293 4.46048 0.249637 4.20037C0.0951411 4.111 0 3.94605 0 3.76756V1.75ZM10 1C10.2761 1 10.5 1.22386 10.5 1.5V2C10.5 2.27614 10.2761 2.5 10 2.5C9.72386 2.5 9.5 2.27614 9.5 2V1.5C9.5 1.22386 9.72386 1 10 1ZM10.5 4C10.5 3.72386 10.2761 3.5 10 3.5C9.72386 3.5 9.5 3.72386 9.5 4V4.5C9.5 4.77614 9.72386 5 10 5C10.2761 5 10.5 4.77614 10.5 4.5V4ZM10 6C10.2761 6 10.5 6.22386 10.5 6.5V7C10.5 7.27614 10.2761 7.5 10 7.5C9.72386 7.5 9.5 7.27614 9.5 7V6.5C9.5 6.22386 9.72386 6 10 6ZM10.5 9C10.5 8.72386 10.2761 8.5 10 8.5C9.72386 8.5 9.5 8.72386 9.5 9V9.5C9.5 9.77614 9.72386 10 10 10C10.2761 10 10.5 9.77614 10.5 9.5V9ZM3 5.5C3 5.22386 3.22386 5 3.5 5H7C7.27614 5 7.5 5.22386 7.5 5.5C7.5 5.77614 7.27614 6 7 6H3.5C3.22386 6 3 5.77614 3 5.5ZM3.5 7C3.22386 7 3 7.22386 3 7.5C3 7.77614 3.22386 8 3.5 8H5.5C5.77614 8 6 7.77614 6 7.5C6 7.22386 5.77614 7 5.5 7H3.5Z" fill="#AAAEBB"/>
</svg>
