<svg width="16" height="12" viewBox="0 0 16 12" fill="none" xmlns="http://www.w3.org/2000/svg">
<path d="M11 2V2.5M11 4.5V5M11 7V7.5M11 9.5V10M5 6.5H8.5M5 8H7M2.25 1.5C1.83579 1.5 1.5 1.83579 1.5 2.25V4.26756C2.0978 4.61337 2.5 5.25972 2.5 6C2.5 6.74028 2.0978 7.38663 1.5 7.73244V9.75C1.5 10.1642 1.83579 10.5 2.25 10.5H13.75C14.1642 10.5 14.5 10.1642 14.5 9.75V7.73244C13.9022 7.38663 13.5 6.74028 13.5 6C13.5 5.25972 13.9022 4.61337 14.5 4.26756V2.25C14.5 1.83579 14.1642 1.5 13.75 1.5H2.25Z" stroke="#AAAEBB" stroke-width="1.5" stroke-linecap="round" stroke-linejoin="round"/>
</svg>
