<svg width="28" height="29" viewBox="0 0 28 29" fill="none" xmlns="http://www.w3.org/2000/svg">
<rect x="0.5" y="1" width="27" height="27" rx="13.5" fill="#7C808C"/>
<rect x="0.5" y="1" width="27" height="27" rx="13.5" stroke="#3B4152"/>
<path d="M10.5513 10.6166C10.3105 11.0024 9.90752 11.256 9.45734 11.32C9.20437 11.3559 8.95235 11.3948 8.70133 11.4366C7.99941 11.5536 7.5 12.1711 7.5 12.8827V18.5C7.5 19.3284 8.17157 20 9 20H19C19.8284 20 20.5 19.3284 20.5 18.5V12.8827C20.5 12.1711 20.0006 11.5536 19.2987 11.4367C19.0476 11.3948 18.7956 11.3559 18.5427 11.32C18.0925 11.256 17.6895 11.0024 17.4487 10.6166L16.9013 9.73926C16.6489 9.33491 16.2196 9.07226 15.7437 9.0467C15.1664 9.0157 14.585 9 14 9C13.415 9 12.8336 9.0157 12.2563 9.0467C11.7804 9.07226 11.3511 9.33491 11.0987 9.73926L10.5513 10.6166Z" stroke="#FCFCFC" stroke-width="1.5" stroke-linecap="round" stroke-linejoin="round"/>
<path d="M17 15C17 16.6569 15.6569 18 14 18C12.3431 18 11 16.6569 11 15C11 13.3431 12.3431 12 14 12C15.6569 12 17 13.3431 17 15Z" stroke="#FCFCFC" stroke-width="1.5" stroke-linecap="round" stroke-linejoin="round"/>
<path d="M18.5 13.5H18.505V13.505H18.5V13.5Z" stroke="#FCFCFC" stroke-width="1.5" stroke-linecap="round" stroke-linejoin="round"/>
</svg>
