<svg width="14" height="13" viewBox="0 0 14 13" fill="none" xmlns="http://www.w3.org/2000/svg">
<path fill-rule="evenodd" clip-rule="evenodd" d="M12.1222 8.62339C12.882 8.22056 13.3996 7.4215 13.3996 6.50156C13.3996 5.58162 12.882 4.78257 12.1222 4.37973C12.3746 3.55758 12.1756 2.62656 11.5251 1.97606C10.8746 1.32556 9.94358 1.12654 9.12143 1.37899C8.7186 0.619147 7.91955 0.101562 6.99961 0.101562C6.07966 0.101562 5.28061 0.619156 4.87777 1.37901C4.05563 1.12657 3.12462 1.32559 2.47413 1.97609C1.82363 2.62658 1.62461 3.55759 1.87705 4.37973C1.1172 4.78257 0.599609 5.58162 0.599609 6.50156C0.599609 7.42151 1.1172 8.22056 1.87705 8.62339C1.6246 9.44554 1.82362 10.3766 2.47412 11.0271C3.12462 11.6776 4.05563 11.8766 4.87778 11.6241C5.28062 12.384 6.07967 12.9016 6.99961 12.9016C7.91956 12.9016 8.71861 12.384 9.12144 11.6241C9.94359 11.8766 10.8746 11.6775 11.5251 11.027C12.1756 10.3765 12.3746 9.44554 12.1222 8.62339ZM10.0849 5.05447C10.2798 4.78647 10.2205 4.41122 9.95251 4.21632C9.68452 4.02142 9.30927 4.08067 9.11437 4.34866L6.32736 8.18079L4.82387 6.6773C4.58956 6.44298 4.20966 6.44298 3.97535 6.6773C3.74103 6.91161 3.74103 7.29151 3.97535 7.52583L5.97535 9.52583C6.09942 9.64991 6.2716 9.71345 6.44654 9.69972C6.62148 9.686 6.78164 9.59638 6.88485 9.45446L10.0849 5.05447Z" fill="#AAAEBB"/>
</svg>
