<svg width="26" height="30" viewBox="0 0 26 30" fill="none" xmlns="http://www.w3.org/2000/svg">
<path d="M19.6667 11.6667V7.13335C19.6667 6.38662 19.6667 6.01325 19.5213 5.72803C19.3935 5.47715 19.1895 5.27318 18.9387 5.14535C18.6534 5.00002 18.2801 5.00002 17.5333 5.00002H1M14.3333 18.3334V22.8667C14.3333 23.6134 14.3333 23.9868 14.188 24.272C14.0602 24.5229 13.8562 24.7269 13.6053 24.8547C13.3201 25 12.9467 25 12.2 25H1M1 1.66669L1 28.3334M1 18.3334L22.8667 18.3334C23.6134 18.3334 23.9868 18.3334 24.272 18.188C24.5229 18.0602 24.7268 17.8562 24.8547 17.6053C25 17.3201 25 16.9468 25 16.2V13.8C25 13.0533 25 12.6799 24.8547 12.3947C24.7268 12.1438 24.5229 11.9398 24.272 11.812C23.9868 11.6667 23.6134 11.6667 22.8667 11.6667L1 11.6667L1 18.3334Z" stroke="#121419" stroke-width="1.5" stroke-linecap="round" stroke-linejoin="round"/>
</svg>
