<svg width="18" height="16" viewBox="0 0 18 16" fill="none" xmlns="http://www.w3.org/2000/svg">
<path d="M0.894226 2.6877C1.55532 2.10411 2.42376 1.75 3.37491 1.75H14.6249C15.5761 1.75 16.4445 2.10412 17.1056 2.6877C16.9519 1.45438 15.8999 0.5 14.6249 0.5H3.37491C2.09996 0.5 1.04792 1.45438 0.894226 2.6877Z" fill="#AAAEBB"/>
<path d="M0.894226 5.1877C1.55532 4.60411 2.42376 4.25 3.37491 4.25H14.6249C15.5761 4.25 16.4445 4.60412 17.1056 5.1877C16.9519 3.95438 15.8999 3 14.6249 3H3.37491C2.09996 3 1.04792 3.95438 0.894226 5.1877Z" fill="#AAAEBB"/>
<path d="M3.375 5.5C1.99429 5.5 0.875 6.61929 0.875 8V13C0.875 14.3807 1.99429 15.5 3.375 15.5H14.625C16.0057 15.5 17.125 14.3807 17.125 13V8C17.125 6.61929 16.0057 5.5 14.625 5.5H11.5C11.1548 5.5 10.875 5.77982 10.875 6.125C10.875 7.16053 10.0355 8 9 8C7.96447 8 7.125 7.16053 7.125 6.125C7.125 5.77982 6.84518 5.5 6.5 5.5H3.375Z" fill="#AAAEBB"/>
</svg>
