<svg width="14" height="13" viewBox="0 0 14 13" fill="none" xmlns="http://www.w3.org/2000/svg">
<path d="M13.481 6.99951C13.4936 6.8341 13.5 6.66696 13.5 6.49833C13.5 5.48221 13.2668 4.52056 12.8511 3.66394C12.0264 4.44683 11.0448 5.06601 9.95826 5.46939C9.98591 5.80872 10 6.15188 10 6.49832C10 7.23246 9.93671 7.95181 9.8153 8.65122C11.1442 8.31682 12.3812 7.75116 13.481 6.99951Z" fill="#AAAEBB"/>
<path d="M8.7562 8.86507C8.91599 8.10126 9 7.3096 9 6.49832C9 6.25273 8.9923 6.00894 8.97713 5.76718C8.3427 5.91831 7.6807 5.99832 7 5.99832C6.3193 5.99832 5.6573 5.91831 5.02287 5.76718C5.0077 6.00894 5 6.25273 5 6.49832C5 7.3096 5.08401 8.10126 5.2438 8.86507C5.81638 8.95281 6.40288 8.99832 7 8.99832C7.59712 8.99832 8.18362 8.95281 8.7562 8.86507Z" fill="#AAAEBB"/>
<path d="M5.51482 9.91101C6.00185 9.96867 6.49746 9.99832 7 9.99832C7.50254 9.99832 7.99815 9.96867 8.48518 9.91101C8.14265 11.0148 7.63835 12.0474 7 12.981C6.36165 12.0474 5.85735 11.0148 5.51482 9.91101Z" fill="#AAAEBB"/>
<path d="M4.1847 8.65122C4.06329 7.95181 4 7.23246 4 6.49832C4 6.15188 4.01409 5.80872 4.04174 5.46939C2.95524 5.06601 1.9736 4.44683 1.14889 3.66394C0.733156 4.52056 0.5 5.48221 0.5 6.49833C0.5 6.66696 0.506424 6.8341 0.519037 6.99951C1.61884 7.75116 2.85582 8.31682 4.1847 8.65122Z" fill="#AAAEBB"/>
<path d="M13.2374 8.33334C12.5602 10.6387 10.6398 12.4121 8.25172 12.8779C8.82932 11.9066 9.27903 10.8503 9.57763 9.73226C10.8842 9.45836 12.1157 8.98043 13.2374 8.33334Z" fill="#AAAEBB"/>
<path d="M0.762633 8.33334C1.88428 8.98043 3.11581 9.45836 4.42237 9.73226C4.72097 10.8503 5.17068 11.9066 5.74828 12.8779C3.36018 12.4121 1.43976 10.6387 0.762633 8.33334Z" fill="#AAAEBB"/>
<path d="M8.25172 0.118742C9.93277 0.446672 11.3821 1.42251 12.3291 2.7757C11.6234 3.48827 10.7758 4.06005 9.83219 4.44515C9.5747 2.88692 9.02901 1.42592 8.25172 0.118742Z" fill="#AAAEBB"/>
<path d="M7 0.015625C7.95245 1.40869 8.60647 3.02195 8.86998 4.76333C8.2722 4.91675 7.64563 4.99832 7 4.99832C6.35437 4.99832 5.7278 4.91675 5.13002 4.76333C5.39353 3.02195 6.04755 1.40869 7 0.015625Z" fill="#AAAEBB"/>
<path d="M5.74828 0.118741C4.97099 1.42592 4.4253 2.88692 4.16781 4.44515C3.22419 4.06005 2.37659 3.48827 1.6709 2.7757C2.61793 1.42251 4.06723 0.446671 5.74828 0.118741Z" fill="#AAAEBB"/>
</svg>
