<svg width="14" height="15" viewBox="0 0 14 15" fill="none" xmlns="http://www.w3.org/2000/svg">
<path d="M7 13.5C9.79505 13.5 12.1437 11.5888 12.8105 9.00196M7 13.5C4.20495 13.5 1.85628 11.5888 1.18953 9.00196M7 13.5C8.65685 13.5 10 10.8137 10 7.5C10 4.18629 8.65685 1.5 7 1.5M7 13.5C5.34315 13.5 4 10.8137 4 7.5C4 4.18629 5.34315 1.5 7 1.5M7 1.5C9.24346 1.5 11.1993 2.73129 12.2287 4.55497M7 1.5C4.75654 1.5 2.80066 2.73129 1.77128 4.55497M12.2287 4.55497C10.8265 5.76693 8.99885 6.5 7 6.5C5.00115 6.5 3.17351 5.76693 1.77128 4.55497M12.2287 4.55497C12.7198 5.42495 13 6.42975 13 7.5C13 8.01866 12.9342 8.52194 12.8105 9.00196M12.8105 9.00196C11.0889 9.95649 9.10793 10.5 7 10.5C4.89207 10.5 2.91108 9.95649 1.18953 9.00196M1.18953 9.00196C1.06581 8.52194 1 8.01866 1 7.5C1 6.42975 1.28022 5.42495 1.77128 4.55497" stroke="#3C4253" stroke-width="1.5" stroke-linecap="round" stroke-linejoin="round"/>
</svg>
